<svg viewBox="1104.4973544973545 1876.8000000000002 6218.320105820106 1810.5600000000002" style="max-height: 500px" xmlns="http://www.w3.org/2000/svg" id="outputsvg" class="img-fluid" width="6218.320105820106" height="1810.5600000000002">
  <g style="transform: none;" fill="rgb(255,255,255)" id="l2gYR1Oi2hhshwR9QWdnQau">
    <g style="transform: none;">
      <!-- New circular green logo replacing hexagon -->
      <g transform="translate(2400, 2780) scale(2.3)">
        <path d="M194.336 43.631 C 119.788 46.874,55.234 105.842,47.101 178.125 C 39.699 243.906,67.081 298.975,124.219 333.220 C 167.545 359.187,220.458 361.474,264.845 339.298 C 334.633 304.431,367.673 234.588,349.775 159.766 C 333.489 91.684,265.056 40.555,194.336 43.631 M209.961 53.502 C 268.306 63.057,308.193 147.360,294.707 232.617 C 293.490 240.309,292.117 247.076,291.685 247.507 C 291.599 247.594,291.411 244.982,291.267 241.703 C 288.618 181.132,233.899 117.098,173.402 103.773 C 150.290 98.682,133.675 102.789,121.126 116.693 C 118.132 120.010,118.146 119.905,121.646 112.753 C 138.047 79.243,164.345 56.911,191.992 53.017 C 195.589 52.510,205.544 52.779,209.961 53.502 M137.876 76.270 C 93.158 125.703,82.748 213.376,113.351 282.813 C 120.236 298.435,131.794 316.388,139.993 324.198 C 145.809 329.737,133.781 321.065,125.977 314.091 C 65.758 260.284,61.213 151.229,116.753 92.768 C 123.140 86.046,140.051 71.875,141.687 71.875 C 141.777 71.875,140.062 73.853,137.876 76.270 M262.002 74.303 C 308.415 107.289,330.453 165.583,320.101 227.990 C 313.446 268.111,293.623 300.797,262.164 323.521 C 259.525 325.427,259.617 325.194,263.057 321.259 C 318.539 257.797,317.637 134.752,261.253 75.186 C 259.529 73.365,258.223 71.875,258.351 71.875 C 258.480 71.875,260.122 72.968,262.002 74.303 M281.641 75.756 C 328.187 107.455,351.610 156.211,347.289 212.409 C 343.898 256.504,321.015 294.960,283.165 320.172 C 277.644 323.850,276.524 324.241,279.928 321.302 C 284.951 316.965,295.437 304.296,301.439 295.313 C 325.536 259.244,334.924 214.060,327.715 168.853 C 322.097 133.621,306.901 104.258,279.755 76.172 C 277.574 73.916,275.788 72.030,275.786 71.981 C 275.780 71.863,278.493 73.613,281.641 75.756 M118.315 78.422 C 91.419 106.018,76.190 137.474,71.695 174.717 C 65.055 229.736,81.613 281.187,118.164 319.118 C 123.192 324.336,123.039 324.339,115.625 319.172 C 68.073 286.031,45.540 232.721,54.501 174.559 C 60.651 134.639,82.746 100.554,118.359 76.047 C 121.045 74.199,123.398 72.680,123.588 72.672 C 123.778 72.663,121.405 75.251,118.315 78.422 M169.141 109.774 C 219.274 117.612,271.270 169.138,282.026 221.639 C 284.074 231.634,284.763 245.361,283.597 252.930 L 283.055 256.445 282.736 254.297 C 278.326 224.554,259.105 189.829,228.165 155.704 C 208.042 133.510,180.602 115.212,159.180 109.702 L 156.445 108.999 161.523 109.188 C 164.316 109.292,167.744 109.556,169.141 109.774 M158.202 115.263 C 182.915 121.495,211.989 142.821,235.379 171.875 C 287.567 236.697,291.753 295.644,243.359 284.245 C 209.140 276.184,166.478 238.949,139.453 193.555 C 110.196 144.411,119.512 105.507,158.202 115.263 M118.174 155.859 C 127.163 199.254,175.932 259.188,220.402 281.490 C 229.992 286.300,244.928 291.406,249.406 291.406 C 252.046 291.406,250.285 292.158,246.973 292.444 C 194.711 296.964,131.462 245.511,117.009 186.719 C 113.755 173.478,113.208 155.319,115.703 143.359 L 116.152 141.211 116.657 146.094 C 116.935 148.779,117.618 153.174,118.174 155.859 M106.993 161.229 C 107.154 173.250,110.022 187.492,115.116 201.563 C 141.319 273.942,236.382 324.498,276.074 287.162 C 278.649 284.740,278.637 284.853,275.758 290.214 C 235.337 365.476,161.657 363.794,122.674 286.719 C 105.019 251.814,98.516 205.466,105.326 163.086 C 106.722 154.402,106.900 154.204,106.993 161.229" stroke="none" fill="rgb(78,201,176)" fill-rule="evenodd" transform="translate(-200, -200)"/>
      </g>
      <!-- DEXTO text -->
      <path d="M3308 3142 l-78 -3 0 -54 0 -55 113 0 c123 0 175 -16 230 -68 106 -100 85 -301 -38 -377 -45 -28 -56 -30 -174 -35 l-126 -5 0 -55 0 -55 95 -1 c164 -1 270 36 354 126 91 97 112 246 52 377 -68 149 -203 214 -428 205z" id="pvm6lXhmm"/>
      <path fill="rgb(78,201,176)" d="M4758 3142 l-57 -3 125 -174 c68 -95 124 -176 124 -179 0 -3 -54 -81 -120 -173 l-120 -168 66 -3 c36 -2 71 2 78 7 7 6 48 63 91 126 43 63 80 115 81 115 2 0 42 -56 90 -125 l87 -125 68 0 69 0 -57 83 c-32 45 -141 202 -243 349 -122 176 -192 267 -205 270 -11 2 -46 2 -77 0z" id="pDFqGSpBH"/>
      <path d="M5724 3141 c-2 -2 -4 -109 -4 -238 l0 -233 65 0 65 0 0 234 0 234 -61 4 c-33 1 -63 1 -65 -1z" id="pg1nXNDci"/>
      <path d="M4000 3085 l0 -55 260 0 260 0 0 55 0 55 -260 0 -260 0 0 -55z" id="p37v2eGBm"/>
      <path fill="rgb(78,201,176)" d="M5165 3083 c-22 -32 -48 -71 -59 -89 l-19 -32 36 -46 35 -47 73 103 c40 57 84 118 97 136 l24 32 -73 0 -74 -1 -40 -56z" id="pDDjH3l0s"/>
      <path d="M6413 3119 c-66 -25 -147 -98 -178 -159 -13 -26 -29 -75 -34 -108 -9 -54 -8 -76 4 -148 6 -36 54 -123 92 -165 39 -43 106 -82 161 -94 l32 -7 0 55 c0 54 0 54 -41 72 -51 24 -106 87 -120 139 -18 65 -6 167 25 220 27 47 75 89 114 101 19 6 22 13 22 61 0 62 -1 62 -77 33z" id="pRUGoQyFS"/>
      <path d="M6600 3086 c0 -50 2 -55 28 -64 42 -14 100 -69 124 -116 27 -52 29 -162 4 -221 -19 -44 -73 -105 -93 -105 -7 0 -13 -4 -13 -9 0 -5 -11 -12 -25 -15 -23 -6 -25 -11 -25 -62 l0 -56 33 7 c84 19 188 99 227 174 25 51 43 146 37 200 -17 137 -85 236 -202 292 -88 42 -95 40 -95 -25z" id="p1FL5AWAOy"/>
      <path d="M4000 2785 l0 -55 235 0 235 0 0 55 0 55 -235 0 -235 0 0 -55z" id="pjmCxYAfB"/>
      <path d="M4000 2495 l0 -55 265 0 265 0 0 55 0 55 -265 0 -265 0 0 -55z" id="pDK6qRJjb"/>
      <path d="M5500 2495 l0 -55 285 0 285 0 0 55 0 55 -285 0 -285 0 0 -55z" id="pI3lgzADU"/>
    </g>
  </g>
</svg>