<svg viewBox="1104.4973544973545 1876.8000000000002 6218.320105820106 1810.5600000000002" style="max-height: 500px" xmlns="http://www.w3.org/2000/svg" id="outputsvg" class="img-fluid" width="6218.320105820106" height="1810.5600000000002"><g style="transform: none;" fill="rgb(255,255,255)" id="l2gYR1Oi2hhshwR9QWdnQau"><g style="transform: none;"><path d="M1654 3093 l-182 -316 55 -96 c30 -53 58 -103 63 -111 22 -36 185 -318 200 -345 9 -16 24 -42 34 -58 l18 -27 366 2 365 3 179 309 c98 170 178 314 178 319 0 6 -47 92 -105 193 -58 100 -105 185 -105 188 0 4 -5 12 -10 19 -6 7 -40 63 -76 125 l-66 112 -366 0 -367 -1 -181 -316z m446 240 c0 -57 -1 -58 -39 -80 -134 -77 -48 -283 101 -242 40 10 82 47 93 82 6 15 26 17 241 17 195 0 234 -2 234 -14 0 -8 4 -16 8 -18 13 -5 172 -283 172 -300 0 -8 -53 -107 -118 -219 l-118 -204 -95 -3 -94 -3 -73 74 c-71 72 -72 73 -61 105 34 98 -60 199 -159 173 -107 -29 -138 -155 -58 -228 20 -18 46 -33 58 -34 40 -2 72 3 92 13 16 9 32 -3 105 -76 l86 -86 78 0 c42 0 77 -3 77 -7 -1 -5 -16 -33 -34 -63 l-32 -55 -227 -3 -227 -2 0 122 0 123 -128 128 -128 128 4 59 c4 53 1 64 -22 95 -97 127 -297 6 -227 -137 34 -70 101 -97 171 -68 l31 13 124 -125 125 -125 0 -107 0 -106 -108 0 -108 0 -152 264 c-84 144 -152 268 -152 275 0 6 -4 11 -8 11 -11 0 -32 45 -32 66 0 13 112 215 167 303 15 24 15 24 178 -139 l162 -162 176 2 176 1 15 -29 c8 -16 30 -42 48 -57 28 -24 38 -27 86 -23 43 4 59 11 84 35 77 78 22 233 -84 233 -56 0 -121 -40 -139 -87 -8 -23 -12 -23 -171 -23 l-163 0 -162 163 -163 162 68 117 67 118 128 0 127 0 0 -57z m498 0 c17 -32 46 -82 63 -110 l31 -53 -216 0 -215 0 -16 34 c-9 18 -32 42 -51 52 -33 18 -34 21 -34 76 l0 58 203 0 202 0 33 -57z m-420 -131 c15 -11 26 -33 29 -55 9 -72 -72 -113 -131 -66 -53 41 -20 139 47 139 18 0 43 -9 55 -18z m385 -355 c16 -21 18 -32 11 -58 -12 -43 -54 -74 -88 -65 -77 19 -93 122 -23 151 39 16 75 6 100 -28z m-774 -63 c24 -30 26 -52 10 -87 -35 -77 -149 -48 -149 37 0 71 96 105 139 50z m485 -155 c33 -26 35 -75 5 -113 -28 -35 -74 -35 -113 0 -24 23 -27 32 -22 63 10 66 77 92 130 50z" id="pskiv4z4j"/><path d="M3308 3142 l-78 -3 0 -54 0 -55 113 0 c123 0 175 -16 230 -68 106 -100 85 -301 -38 -377 -45 -28 -56 -30 -174 -35 l-126 -5 0 -55 0 -55 95 -1 c164 -1 270 36 354 126 91 97 112 246 52 377 -68 149 -203 214 -428 205z" id="pvm6lXhmm"/><path fill="rgb(78,201,176)" d="M4758 3142 l-57 -3 125 -174 c68 -95 124 -176 124 -179 0 -3 -54 -81 -120 -173 l-120 -168 66 -3 c36 -2 71 2 78 7 7 6 48 63 91 126 43 63 80 115 81 115 2 0 42 -56 90 -125 l87 -125 68 0 69 0 -57 83 c-32 45 -141 202 -243 349 -122 176 -192 267 -205 270 -11 2 -46 2 -77 0z" id="pDFqGSpBH"/><path d="M5724 3141 c-2 -2 -4 -109 -4 -238 l0 -233 65 0 65 0 0 234 0 234 -61 4 c-33 1 -63 1 -65 -1z" id="pg1nXNDci"/><path d="M4000 3085 l0 -55 260 0 260 0 0 55 0 55 -260 0 -260 0 0 -55z" id="p37v2eGBm"/><path fill="rgb(78,201,176)" d="M5165 3083 c-22 -32 -48 -71 -59 -89 l-19 -32 36 -46 35 -47 73 103 c40 57 84 118 97 136 l24 32 -73 0 -74 -1 -40 -56z" id="pDDjH3l0s"/><path d="M6413 3119 c-66 -25 -147 -98 -178 -159 -13 -26 -29 -75 -34 -108 -9 -54 -8 -76 4 -148 6 -36 54 -123 92 -165 39 -43 106 -82 161 -94 l32 -7 0 55 c0 54 0 54 -41 72 -51 24 -106 87 -120 139 -18 65 -6 167 25 220 27 47 75 89 114 101 19 6 22 13 22 61 0 62 -1 62 -77 33z" id="pRUGoQyFS"/><path d="M6600 3086 c0 -50 2 -55 28 -64 42 -14 100 -69 124 -116 27 -52 29 -162 4 -221 -19 -44 -73 -105 -93 -105 -7 0 -13 -4 -13 -9 0 -5 -11 -12 -25 -15 -23 -6 -25 -11 -25 -62 l0 -56 33 7 c84 19 188 99 227 174 25 51 43 146 37 200 -17 137 -85 236 -202 292 -88 42 -95 40 -95 -25z" id="p1FL5AWAOy"/><path d="M4000 2785 l0 -55 235 0 235 0 0 55 0 55 -235 0 -235 0 0 -55z" id="pjmCxYAfB"/><path d="M4000 2495 l0 -55 265 0 265 0 0 55 0 55 -265 0 -265 0 0 -55z" id="pDK6qRJjb"/><path d="M5500 2495 l0 -55 285 0 285 0 0 55 0 55 -285 0 -285 0 0 -55z" id="pI3lgzADU"/></g></g><g style="transform: none;" stroke-width="10" stroke="rgb(0,0,0)" fill="none" id="l17UaHbJWWua58tezCiLmOC"><g style="transform: none;"><path d="M0 2760 l0 -2760 4175 0 4175 0 0 2760 0 2760 -4175 0 -4175 0 0 -2760z m2634 538 c36 -62 70 -118 76 -125 5 -7 10 -15 10 -19 0 -3 47 -88 105 -188 58 -101 105 -187 105 -193 0 -5 -80 -149 -178 -319 l-179 -309 -365 -3 -366 -2 -18 27 c-10 16 -25 42 -34 58 -15 27 -178 309 -200 345 -5 8 -33 58 -63 111 l-55 96 182 316 181 316 367 1 366 0 66 -112z m929 -191 c125 -57 198 -167 205 -307 5 -96 -23 -174 -84 -240 -84 -90 -190 -127 -354 -126 l-95 1 0 55 0 55 126 5 c118 5 129 7 174 35 123 76 144 277 38 377 -55 52 -107 68 -230 68 l-113 0 0 55 0 54 78 3 c115 4 192 -6 255 -35z m1477 -235 c102 -147 211 -304 243 -349 l57 -83 -69 0 -68 0 -87 125 c-48 69 -88 125 -90 125 -1 0 -38 -52 -81 -115 -43 -63 -84 -120 -91 -126 -7 -5 -42 -9 -78 -7 l-66 3 120 168 c66 92 120 170 120 173 0 3 -56 84 -124 179 l-125 174 57 3 c31 2 66 2 77 0 13 -3 83 -94 205 -270z m810 32 l0 -234 -65 0 -65 0 0 233 c0 129 2 236 4 238 2 2 32 2 65 1 l61 -4 0 -234z m-1330 181 l0 -55 -260 0 -260 0 0 55 0 55 260 0 260 0 0 -55z m808 23 c-13 -18 -57 -79 -97 -136 l-73 -103 -35 47 -36 46 19 32 c11 18 37 57 59 89 l40 56 74 1 73 0 -24 -32z m1162 -22 c0 -48 -3 -55 -22 -61 -39 -12 -87 -54 -114 -101 -31 -53 -43 -155 -25 -220 14 -52 69 -115 120 -139 41 -18 41 -18 41 -72 l0 -55 -32 7 c-55 12 -122 51 -161 94 -38 42 -86 129 -92 165 -12 72 -13 94 -4 148 13 82 48 146 109 201 45 40 131 85 168 86 8 1 12 -16 12 -53z m205 25 c117 -56 185 -155 202 -292 6 -54 -12 -149 -37 -200 -39 -75 -143 -155 -227 -174 l-33 -7 0 56 c0 51 2 56 25 62 14 3 25 10 25 15 0 5 6 9 13 9 20 0 74 61 93 105 25 59 23 169 -4 221 -24 47 -82 102 -124 116 -26 9 -28 14 -28 64 0 65 7 67 95 25z m-2225 -326 l0 -55 -235 0 -235 0 0 55 0 55 235 0 235 0 0 -55z m60 -290 l0 -55 -265 0 -265 0 0 55 0 55 265 0 265 0 0 -55z m1540 0 l0 -55 -285 0 -285 0 0 55 0 55 285 0 285 0 0 -55z" id="p1AtSYyLza"/><path d="M1778 3272 l-68 -117 163 -162 162 -163 163 0 c159 0 163 0 171 23 18 47 83 87 139 87 106 0 161 -155 84 -233 -25 -24 -41 -31 -84 -35 -48 -4 -58 -1 -86 23 -18 15 -40 41 -48 57 l-15 29 -176 -1 -176 -2 -162 162 c-163 163 -163 163 -178 139 -55 -88 -167 -290 -167 -303 0 -21 21 -66 32 -66 4 0 8 -5 8 -11 0 -7 68 -131 152 -275 l152 -264 108 0 108 0 0 106 0 107 -125 125 -124 125 -31 -13 c-70 -29 -137 -2 -171 68 -70 143 130 264 227 137 23 -31 26 -42 22 -95 l-4 -59 128 -128 128 -128 0 -123 0 -122 227 2 227 3 32 55 c18 30 33 58 34 63 0 4 -35 7 -77 7 l-78 0 -86 86 c-73 73 -89 85 -105 76 -20 -10 -52 -15 -92 -13 -39 2 -92 60 -99 108 -7 55 1 84 33 116 36 36 95 52 140 37 65 -22 108 -107 85 -172 -11 -32 -10 -33 61 -105 l73 -74 94 3 95 3 118 204 c65 112 118 211 118 219 0 17 -159 295 -172 300 -4 2 -8 10 -8 18 0 12 -39 14 -234 14 -215 0 -235 -2 -241 -17 -11 -35 -53 -72 -93 -82 -79 -22 -152 28 -168 114 -8 47 20 101 67 128 38 22 39 23 39 80 l0 57 -127 0 -128 0 -67 -118z" id="pVovfhqEY"/><path d="M2160 3332 c0 -55 1 -58 34 -76 19 -10 42 -34 51 -52 l16 -34 215 0 216 0 -31 53 c-17 28 -46 78 -63 110 l-33 57 -202 0 -203 0 0 -58z" id="p8THC8Jpr"/><path d="M2071 3194 c-30 -38 -28 -87 5 -113 36 -29 79 -27 110 4 21 21 25 33 21 62 -10 70 -95 99 -136 47z" id="ph7ZjsMEU"/><path d="M2463 2875 c-70 -29 -54 -132 23 -151 34 -9 76 22 88 65 18 61 -48 112 -111 86z" id="p14jRhecuH"/><path d="M1672 2787 c-42 -45 -20 -119 39 -132 38 -9 73 8 88 42 16 35 14 57 -10 87 -27 35 -86 36 -117 3z" id="pbOyQRMJB"/><path d="M2171 2633 c-12 -10 -24 -34 -27 -54 -5 -31 -2 -40 22 -63 57 -52 134 -19 134 60 0 61 -80 96 -129 57z" id="p7H4XjIOl"/></g></g></svg>