<svg id="svg" version="1.1" xmlns="http://www.w3.org/2000/svg" xmlns:xlink="http://www.w3.org/1999/xlink" width="400" height="400" viewBox="0, 0, 400,400"><g id="svgg"><!-- THICKER VERSION --><path id="path0" d="M194.336 43.631 C 119.788 46.874,55.234 105.842,47.101 178.125 C 39.699 243.906,67.081 298.975,124.219 333.220 C 167.545 359.187,220.458 361.474,264.845 339.298 C 334.633 304.431,367.673 234.588,349.775 159.766 C 333.489 91.684,265.056 40.555,194.336 43.631 M209.961 53.502 C 268.306 63.057,308.193 147.360,294.707 232.617 C 293.490 240.309,292.117 247.076,291.685 247.507 C 291.599 247.594,291.411 244.982,291.267 241.703 C 288.618 181.132,233.899 117.098,173.402 103.773 C 150.290 98.682,133.675 102.789,121.126 116.693 C 118.132 120.010,118.146 119.905,121.646 112.753 C 138.047 79.243,164.345 56.911,191.992 53.017 C 195.589 52.510,205.544 52.779,209.961 53.502 M137.876 76.270 C 93.158 125.703,82.748 213.376,113.351 282.813 C 120.236 298.435,131.794 316.388,139.993 324.198 C 145.809 329.737,133.781 321.065,125.977 314.091 C 65.758 260.284,61.213 151.229,116.753 92.768 C 123.140 86.046,140.051 71.875,141.687 71.875 C 141.777 71.875,140.062 73.853,137.876 76.270 M262.002 74.303 C 308.415 107.289,330.453 165.583,320.101 227.990 C 313.446 268.111,293.623 300.797,262.164 323.521 C 259.525 325.427,259.617 325.194,263.057 321.259 C 318.539 257.797,317.637 134.752,261.253 75.186 C 259.529 73.365,258.223 71.875,258.351 71.875 C 258.480 71.875,260.122 72.968,262.002 74.303 M281.641 75.756 C 328.187 107.455,351.610 156.211,347.289 212.409 C 343.898 256.504,321.015 294.960,283.165 320.172 C 277.644 323.850,276.524 324.241,279.928 321.302 C 284.951 316.965,295.437 304.296,301.439 295.313 C 325.536 259.244,334.924 214.060,327.715 168.853 C 322.097 133.621,306.901 104.258,279.755 76.172 C 277.574 73.916,275.788 72.030,275.786 71.981 C 275.780 71.863,278.493 73.613,281.641 75.756 M118.315 78.422 C 91.419 106.018,76.190 137.474,71.695 174.717 C 65.055 229.736,81.613 281.187,118.164 319.118 C 123.192 324.336,123.039 324.339,115.625 319.172 C 68.073 286.031,45.540 232.721,54.501 174.559 C 60.651 134.639,82.746 100.554,118.359 76.047 C 121.045 74.199,123.398 72.680,123.588 72.672 C 123.778 72.663,121.405 75.251,118.315 78.422 M169.141 109.774 C 219.274 117.612,271.270 169.138,282.026 221.639 C 284.074 231.634,284.763 245.361,283.597 252.930 L 283.055 256.445 282.736 254.297 C 278.326 224.554,259.105 189.829,228.165 155.704 C 208.042 133.510,180.602 115.212,159.180 109.702 L 156.445 108.999 161.523 109.188 C 164.316 109.292,167.744 109.556,169.141 109.774 M158.202 115.263 C 182.915 121.495,211.989 142.821,235.379 171.875 C 287.567 236.697,291.753 295.644,243.359 284.245 C 209.140 276.184,166.478 238.949,139.453 193.555 C 110.196 144.411,119.512 105.507,158.202 115.263 M118.174 155.859 C 127.163 199.254,175.932 259.188,220.402 281.490 C 229.992 286.300,244.928 291.406,249.406 291.406 C 252.046 291.406,250.285 292.158,246.973 292.444 C 194.711 296.964,131.462 245.511,117.009 186.719 C 113.755 173.478,113.208 155.319,115.703 143.359 L 116.152 141.211 116.657 146.094 C 116.935 148.779,117.618 153.174,118.174 155.859 M106.993 161.229 C 107.154 173.250,110.022 187.492,115.116 201.563 C 141.319 273.942,236.382 324.498,276.074 287.162 C 278.649 284.740,278.637 284.853,275.758 290.214 C 235.337 365.476,161.657 363.794,122.674 286.719 C 105.019 251.814,98.516 205.466,105.326 163.086 C 106.722 154.402,106.900 154.204,106.993 161.229 " stroke="rgb(78,201,176)" stroke-width="4" fill="rgb(78,201,176)" fill-rule="evenodd"></path><path id="path1" d="M0.000 200.000 L 0.000 400.000 200.000 400.000 L 400.000 400.000 400.000 200.000 L 400.000 0.000 200.000 0.000 L 0.000 0.000 0.000 200.000 M220.508 44.476 C 275.676 52.337,325.088 91.582,345.064 143.407 C 358.622 178.582,357.750 224.679,342.861 259.766 C 322.809 307.020,273.293 345.332,222.261 353.078 C 143.210 365.077,63.455 308.449,48.467 229.679 C 43.632 204.271,45.109 175.523,52.470 151.758 C 70.201 94.517,125.228 49.767,184.766 44.170 C 187.236 43.938,189.873 43.677,190.625 43.591 C 194.703 43.124,215.295 43.734,220.508 44.476 M193.480 53.132 C 172.047 55.421,149.807 70.149,133.912 92.578 C 129.026 99.473,119.531 116.119,119.531 117.791 C 119.531 117.913,120.526 116.939,121.741 115.627 C 134.318 102.042,152.896 98.213,176.758 104.290 C 230.193 117.897,278.304 169.374,289.427 224.843 C 290.498 230.184,290.897 233.261,291.724 242.578 L 292.019 245.898 293.076 240.430 C 301.568 196.489,296.884 153.888,279.311 115.233 C 260.896 74.728,226.215 49.635,193.480 53.132 M262.061 75.600 C 313.477 131.765,319.003 239.127,273.982 307.227 C 270.852 311.961,267.538 316.325,262.424 322.444 L 261.133 323.990 263.477 322.273 C 293.847 300.032,313.190 267.622,319.900 227.736 C 330.263 166.140,307.678 106.425,261.963 74.548 L 259.570 72.880 262.061 75.600 M118.164 76.440 C 70.912 109.142,47.819 159.042,53.751 215.625 C 58.244 258.487,80.368 294.810,117.383 320.095 L 121.289 322.764 118.121 319.487 C 81.376 281.486,64.602 229.205,71.511 174.219 C 76.209 136.827,91.052 106.231,118.036 78.314 C 120.629 75.632,122.685 73.444,122.605 73.452 C 122.526 73.460,120.527 74.805,118.164 76.440 M137.695 74.911 C 98.459 103.368,78.305 145.311,78.337 198.438 C 78.369 249.399,98.276 292.800,134.466 320.807 C 140.035 325.118,140.971 325.675,138.808 323.391 C 93.329 275.381,82.085 177.185,114.458 110.742 C 121.046 97.220,126.790 88.718,138.625 74.971 C 140.221 73.117,140.173 73.114,137.695 74.911 M277.909 73.794 C 278.076 74.065,279.837 75.985,281.823 78.061 C 309.646 107.150,324.617 138.528,329.103 177.148 C 335.319 230.675,318.151 282.902,282.448 319.072 L 278.853 322.715 281.126 321.276 C 332.325 288.872,356.735 229.845,344.524 167.969 C 337.373 131.739,314.962 98.979,281.673 76.099 C 279.435 74.560,277.741 73.523,277.909 73.794 M163.477 110.694 C 197.383 121.916,232.887 153.724,260.362 197.492 C 271.592 215.382,281.298 239.176,282.673 252.190 C 283.085 256.084,283.509 253.853,283.832 246.094 C 285.394 208.561,263.697 166.995,227.120 137.447 C 206.808 121.038,179.641 109.351,161.914 109.395 L 159.570 109.401 163.477 110.694 M139.749 114.863 C 132.990 116.524,128.894 119.808,125.835 126.018 C 104.435 169.455,189.532 278.112,250.468 285.156 C 291.497 289.900,283.793 232.277,235.374 172.266 C 204.301 133.752,163.222 109.092,139.749 114.863 M115.821 143.848 C 113.640 150.092,114.093 171.756,116.663 184.180 C 128.094 239.438,188.489 292.480,239.844 292.363 C 247.578 292.346,251.055 291.818,247.049 291.269 C 236.384 289.807,218.071 281.626,204.014 272.044 C 159.406 241.636,117.142 180.550,116.349 145.338 C 116.304 143.368,116.145 142.918,115.821 143.848 M105.574 163.086 C 99.652 200.234,104.028 242.203,117.145 274.071 C 152.849 360.817,230.882 370.016,274.179 292.583 C 277.884 285.957,277.972 285.634,275.415 288.025 C 241.476 319.771,160.738 285.059,125.190 223.438 C 114.210 204.404,107.676 183.068,106.710 163.086 L 106.445 157.617 105.574 163.086 " stroke="none" fill="#040404" fill-rule="evenodd"></path><path id="path2" d="M114.153 165.625 C 114.153 166.377,114.234 166.685,114.332 166.309 C 114.430 165.933,114.430 165.317,114.332 164.941 C 114.234 164.565,114.153 164.873,114.153 165.625 M45.794 191.406 C 45.794 192.158,45.874 192.466,45.972 192.090 C 46.071 191.714,46.071 191.099,45.972 190.723 C 45.874 190.347,45.794 190.654,45.794 191.406 M354.388 191.797 C 354.388 192.549,354.468 192.856,354.566 192.480 C 354.664 192.104,354.664 191.489,354.566 191.113 C 354.468 190.737,354.388 191.045,354.388 191.797 M322.406 198.438 C 322.406 200.479,322.472 201.313,322.553 200.293 C 322.633 199.272,322.633 197.603,322.553 196.582 C 322.472 195.562,322.406 196.396,322.406 198.438 M70.013 199.609 C 70.013 200.361,70.093 200.669,70.191 200.293 C 70.289 199.917,70.289 199.302,70.191 198.926 C 70.093 198.550,70.013 198.857,70.013 199.609 M119.922 321.289 C 120.651 322.041,121.335 322.656,121.442 322.656 C 121.550 322.656,121.041 322.041,120.313 321.289 C 119.584 320.537,118.899 319.922,118.792 319.922 C 118.685 319.922,119.193 320.537,119.922 321.289 " stroke="none" fill="rgb(78,201,176)" fill-rule="evenodd"></path><path id="path3" d="M194.434 43.635 C 194.917 43.728,195.708 43.728,196.191 43.635 C 196.675 43.542,196.279 43.466,195.313 43.466 C 194.346 43.466,193.950 43.542,194.434 43.635 M206.934 43.635 C 207.417 43.728,208.208 43.728,208.691 43.635 C 209.175 43.542,208.779 43.466,207.813 43.466 C 206.846 43.466,206.450 43.542,206.934 43.635 M259.375 73.242 C 260.672 74.581,261.460 75.123,260.598 74.085 C 260.359 73.797,260.293 73.417,260.453 73.241 C 260.612 73.065,260.528 73.045,260.267 73.195 C 259.993 73.352,259.580 73.130,259.294 72.671 C 259.020 72.233,258.628 71.875,258.423 71.875 C 258.218 71.875,258.646 72.490,259.375 73.242 M122.017 73.710 C 122.166 73.859,121.009 75.309,119.445 76.932 L 116.602 79.883 119.610 76.982 C 122.216 74.468,122.906 73.438,121.982 73.438 C 121.852 73.438,121.867 73.560,122.017 73.710 M145.301 78.418 L 142.773 81.055 145.410 78.527 C 147.859 76.179,148.225 75.781,147.938 75.781 C 147.878 75.781,146.691 76.968,145.301 78.418 M283.203 79.883 C 283.932 80.635,284.616 81.250,284.724 81.250 C 284.831 81.250,284.323 80.635,283.594 79.883 C 282.865 79.131,282.181 78.516,282.073 78.516 C 281.966 78.516,282.474 79.131,283.203 79.883 M308.594 88.867 C 309.761 90.049,310.803 91.016,310.911 91.016 C 311.018 91.016,310.151 90.049,308.984 88.867 C 307.817 87.686,306.775 86.719,306.667 86.719 C 306.560 86.719,307.427 87.686,308.594 88.867 M99.780 90.723 L 98.633 91.992 99.902 90.845 C 101.086 89.775,101.351 89.453,101.050 89.453 C 100.982 89.453,100.411 90.024,99.780 90.723 M303.711 94.141 C 304.987 95.430,306.118 96.484,306.226 96.484 C 306.333 96.484,305.377 95.430,304.102 94.141 C 302.826 92.852,301.694 91.797,301.587 91.797 C 301.480 91.797,302.435 92.852,303.711 94.141 M283.594 93.482 C 283.594 93.549,284.165 94.120,284.863 94.751 L 286.133 95.898 284.986 94.629 C 283.916 93.446,283.594 93.180,283.594 93.482 M144.048 113.948 C 144.533 114.042,145.237 114.038,145.610 113.940 C 145.983 113.842,145.586 113.766,144.727 113.770 C 143.867 113.775,143.562 113.855,144.048 113.948 M242.773 142.969 C 243.832 144.043,244.785 144.922,244.893 144.922 C 245.000 144.922,244.222 144.043,243.164 142.969 C 242.106 141.895,241.152 141.016,241.045 141.016 C 240.938 141.016,241.715 141.895,242.773 142.969 M216.406 143.872 C 216.406 143.939,216.978 144.511,217.676 145.142 L 218.945 146.289 217.798 145.020 C 216.729 143.836,216.406 143.570,216.406 143.872 M216.406 151.367 C 217.135 152.119,217.819 152.734,217.927 152.734 C 218.034 152.734,217.526 152.119,216.797 151.367 C 216.068 150.615,215.384 150.000,215.276 150.000 C 215.169 150.000,215.677 150.615,216.406 151.367 M222.461 157.422 C 223.300 158.281,224.075 158.984,224.182 158.984 C 224.289 158.984,223.691 158.281,222.852 157.422 C 222.012 156.563,221.238 155.859,221.131 155.859 C 221.023 155.859,221.622 156.563,222.461 157.422 M106.772 161.328 C 106.772 162.939,106.841 163.599,106.925 162.793 C 107.009 161.987,107.009 160.669,106.925 159.863 C 106.841 159.058,106.772 159.717,106.772 161.328 M114.153 167.969 C 114.153 168.721,114.234 169.028,114.332 168.652 C 114.430 168.276,114.430 167.661,114.332 167.285 C 114.234 166.909,114.153 167.217,114.153 167.969 M102.841 188.281 C 102.841 189.248,102.917 189.644,103.010 189.160 C 103.103 188.677,103.103 187.886,103.010 187.402 C 102.917 186.919,102.841 187.314,102.841 188.281 M329.778 188.672 C 329.778 189.424,329.859 189.731,329.957 189.355 C 330.055 188.979,330.055 188.364,329.957 187.988 C 329.859 187.612,329.778 187.920,329.778 188.672 M52.833 189.258 C 52.837 190.117,52.917 190.423,53.011 189.937 C 53.104 189.451,53.101 188.748,53.003 188.374 C 52.905 188.001,52.829 188.398,52.833 189.258 M304.013 190.234 C 304.013 191.201,304.089 191.597,304.182 191.113 C 304.275 190.630,304.275 189.839,304.182 189.355 C 304.089 188.872,304.013 189.268,304.013 190.234 M77.846 191.211 C 77.849 192.285,77.925 192.678,78.015 192.084 C 78.104 191.491,78.102 190.612,78.009 190.131 C 77.917 189.651,77.843 190.137,77.846 191.211 M95.810 191.406 C 95.810 192.373,95.886 192.769,95.979 192.285 C 96.072 191.802,96.072 191.011,95.979 190.527 C 95.886 190.044,95.810 190.439,95.810 191.406 M322.387 192.773 C 322.389 194.063,322.462 194.543,322.549 193.841 C 322.636 193.139,322.634 192.084,322.545 191.497 C 322.456 190.910,322.384 191.484,322.387 192.773 M45.794 193.750 C 45.794 194.502,45.874 194.810,45.972 194.434 C 46.071 194.058,46.071 193.442,45.972 193.066 C 45.874 192.690,45.794 192.998,45.794 193.750 M354.403 194.531 C 354.403 195.498,354.479 195.894,354.573 195.410 C 354.666 194.927,354.666 194.136,354.573 193.652 C 354.479 193.169,354.403 193.564,354.403 194.531 M45.802 200.977 C 45.806 201.836,45.886 202.142,45.979 201.656 C 46.073 201.170,46.069 200.467,45.972 200.093 C 45.874 199.720,45.797 200.117,45.802 200.977 M354.422 203.516 C 354.422 204.912,354.493 205.483,354.579 204.785 C 354.666 204.087,354.666 202.944,354.579 202.246 C 354.493 201.548,354.422 202.119,354.422 203.516 M322.377 203.711 C 322.380 204.785,322.456 205.178,322.546 204.584 C 322.636 203.991,322.633 203.112,322.541 202.631 C 322.448 202.151,322.374 202.637,322.377 203.711 M77.851 205.469 C 77.851 206.650,77.925 207.134,78.014 206.543 C 78.104 205.952,78.104 204.985,78.014 204.395 C 77.925 203.804,77.851 204.287,77.851 205.469 M102.825 206.641 C 102.825 207.393,102.905 207.700,103.004 207.324 C 103.102 206.948,103.102 206.333,103.004 205.957 C 102.905 205.581,102.825 205.889,102.825 206.641 M303.997 207.813 C 303.997 208.564,304.077 208.872,304.176 208.496 C 304.274 208.120,304.274 207.505,304.176 207.129 C 304.077 206.753,303.997 207.061,303.997 207.813 M329.786 208.789 C 329.790 209.648,329.870 209.954,329.964 209.468 C 330.057 208.982,330.054 208.279,329.956 207.906 C 329.858 207.532,329.782 207.930,329.786 208.789 M296.974 211.523 C 296.978 212.383,297.058 212.688,297.151 212.202 C 297.245 211.717,297.241 211.013,297.143 210.640 C 297.046 210.267,296.969 210.664,296.974 211.523 M96.184 212.891 C 96.184 213.643,96.265 213.950,96.363 213.574 C 96.461 213.198,96.461 212.583,96.363 212.207 C 96.265 211.831,96.184 212.139,96.184 212.891 M291.106 238.672 C 291.106 239.424,291.187 239.731,291.285 239.355 C 291.383 238.979,291.383 238.364,291.285 237.988 C 291.187 237.612,291.106 237.920,291.106 238.672 M284.125 242.578 C 284.125 244.619,284.191 245.454,284.271 244.434 C 284.352 243.413,284.352 241.743,284.271 240.723 C 284.191 239.702,284.125 240.537,284.125 242.578 M177.930 242.969 C 179.205 244.258,180.337 245.313,180.444 245.313 C 180.552 245.313,179.596 244.258,178.320 242.969 C 177.045 241.680,175.913 240.625,175.806 240.625 C 175.698 240.625,176.654 241.680,177.930 242.969 M172.852 245.703 C 174.776 247.637,176.439 249.219,176.546 249.219 C 176.654 249.219,175.167 247.637,173.242 245.703 C 171.318 243.770,169.655 242.188,169.548 242.188 C 169.440 242.188,170.927 243.770,172.852 245.703 M150.000 255.664 C 151.817 257.490,153.391 258.984,153.498 258.984 C 153.606 258.984,152.207 257.490,150.391 255.664 C 148.574 253.838,147.000 252.344,146.892 252.344 C 146.785 252.344,148.183 253.838,150.000 255.664 M238.972 292.861 C 239.674 292.948,240.729 292.946,241.316 292.857 C 241.903 292.768,241.328 292.697,240.039 292.699 C 238.750 292.701,238.270 292.774,238.972 292.861 M309.354 297.949 L 308.008 299.414 309.473 298.068 C 310.836 296.815,311.117 296.484,310.819 296.484 C 310.754 296.484,310.094 297.144,309.354 297.949 M94.141 301.367 C 95.525 302.764,96.745 303.906,96.852 303.906 C 96.960 303.906,95.915 302.764,94.531 301.367 C 93.147 299.971,91.927 298.828,91.819 298.828 C 91.712 298.828,92.757 299.971,94.141 301.367 M237.988 299.879 C 238.364 299.977,238.979 299.977,239.355 299.879 C 239.731 299.780,239.424 299.700,238.672 299.700 C 237.920 299.700,237.612 299.780,237.988 299.879 M243.262 299.885 C 243.745 299.978,244.536 299.978,245.020 299.885 C 245.503 299.792,245.107 299.716,244.141 299.716 C 243.174 299.716,242.778 299.792,243.262 299.885 M303.696 303.613 L 301.758 305.664 303.809 303.726 C 305.714 301.924,306.039 301.563,305.747 301.563 C 305.685 301.563,304.762 302.485,303.696 303.613 M281.036 307.520 L 279.492 309.180 281.152 307.636 C 282.696 306.200,282.992 305.859,282.696 305.859 C 282.633 305.859,281.886 306.606,281.036 307.520 M122.070 310.547 C 122.909 311.406,123.684 312.109,123.791 312.109 C 123.899 312.109,123.300 311.406,122.461 310.547 C 121.622 309.688,120.847 308.984,120.740 308.984 C 120.632 308.984,121.231 309.688,122.070 310.547 M147.070 321.484 C 148.128 322.559,149.082 323.438,149.189 323.438 C 149.297 323.438,148.519 322.559,147.461 321.484 C 146.403 320.410,145.449 319.531,145.342 319.531 C 145.234 319.531,146.012 320.410,147.070 321.484 M278.320 322.656 C 277.931 323.086,277.798 323.438,278.023 323.438 C 278.248 323.438,278.537 323.163,278.666 322.827 C 278.798 322.485,279.100 322.340,279.354 322.497 C 279.637 322.671,279.703 322.606,279.529 322.326 C 279.166 321.737,279.148 321.742,278.320 322.656 M139.363 323.857 C 139.846 324.410,140.108 325.010,139.945 325.189 C 139.782 325.369,139.857 325.396,140.113 325.250 C 140.368 325.103,140.758 325.295,140.980 325.675 C 141.201 326.056,141.388 326.182,141.394 325.956 C 141.401 325.729,140.749 324.938,139.945 324.198 C 139.141 323.457,138.879 323.304,139.363 323.857 M198.737 345.596 C 199.440 345.683,200.494 345.681,201.081 345.592 C 201.668 345.502,201.094 345.431,199.805 345.434 C 198.516 345.436,198.035 345.509,198.737 345.596 M198.535 354.587 C 199.985 354.662,202.358 354.662,203.809 354.587 C 205.259 354.511,204.072 354.450,201.172 354.450 C 198.271 354.450,197.085 354.511,198.535 354.587 " stroke="none" fill="rgb(78,201,176)" fill-rule="evenodd"></path><path id="path4" d="M139.782 73.619 C 139.322 74.149,138.768 74.474,138.553 74.340 C 138.321 74.197,138.283 74.296,138.459 74.581 C 138.709 74.986,141.016 73.360,141.016 72.778 C 141.016 72.429,140.530 72.760,139.782 73.619 M281.250 91.211 C 281.979 91.963,282.663 92.578,282.770 92.578 C 282.878 92.578,282.369 91.963,281.641 91.211 C 280.912 90.459,280.228 89.844,280.120 89.844 C 280.013 89.844,280.521 90.459,281.250 91.211 M95.301 95.215 L 92.773 97.852 95.410 95.324 C 96.860 93.934,98.047 92.747,98.047 92.687 C 98.047 92.400,97.649 92.766,95.301 95.215 M158.840 109.387 C 159.107 109.653,159.562 109.662,160.188 109.412 C 161.076 109.057,161.051 109.032,159.785 109.009 C 158.860 108.992,158.564 109.111,158.840 109.387 M122.387 143.164 C 122.389 144.453,122.462 144.933,122.549 144.231 C 122.636 143.529,122.634 142.475,122.545 141.888 C 122.456 141.301,122.384 141.875,122.387 143.164 M240.039 149.219 C 241.748 150.938,243.234 152.344,243.341 152.344 C 243.448 152.344,242.138 150.938,240.430 149.219 C 238.721 147.500,237.235 146.094,237.128 146.094 C 237.020 146.094,238.330 147.500,240.039 149.219 M221.094 148.242 C 221.823 148.994,222.507 149.609,222.614 149.609 C 222.722 149.609,222.213 148.994,221.484 148.242 C 220.756 147.490,220.071 146.875,219.964 146.875 C 219.857 146.875,220.365 147.490,221.094 148.242 M114.161 159.570 C 114.165 160.430,114.245 160.735,114.339 160.249 C 114.432 159.763,114.429 159.060,114.331 158.687 C 114.233 158.313,114.157 158.711,114.161 159.570 M224.219 159.497 C 224.219 159.564,224.790 160.136,225.488 160.767 L 226.758 161.914 225.611 160.645 C 224.541 159.461,224.219 159.195,224.219 159.497 M296.966 191.016 C 296.966 191.768,297.046 192.075,297.144 191.699 C 297.243 191.323,297.243 190.708,297.144 190.332 C 297.046 189.956,296.966 190.264,296.966 191.016 M52.825 192.188 C 52.825 192.939,52.905 193.247,53.004 192.871 C 53.102 192.495,53.102 191.880,53.004 191.504 C 52.905 191.128,52.825 191.436,52.825 192.188 M70.039 192.969 C 70.039 194.150,70.112 194.634,70.202 194.043 C 70.291 193.452,70.291 192.485,70.202 191.895 C 70.112 191.304,70.039 191.787,70.039 192.969 M102.851 192.969 C 102.851 194.150,102.925 194.634,103.014 194.043 C 103.104 193.452,103.104 192.485,103.014 191.895 C 102.925 191.304,102.851 191.787,102.851 192.969 M330.236 199.414 C 330.237 202.852,330.296 204.206,330.369 202.423 C 330.442 200.640,330.441 197.828,330.368 196.173 C 330.295 194.518,330.236 195.977,330.236 199.414 M77.873 199.414 C 77.872 201.348,77.938 202.188,78.020 201.281 C 78.102 200.375,78.103 198.793,78.022 197.766 C 77.941 196.739,77.874 197.480,77.873 199.414 M70.047 203.125 C 70.047 204.521,70.118 205.093,70.204 204.395 C 70.291 203.696,70.291 202.554,70.204 201.855 C 70.118 201.157,70.047 201.729,70.047 203.125 M102.846 202.930 C 102.849 204.004,102.925 204.397,103.015 203.803 C 103.104 203.209,103.102 202.331,103.009 201.850 C 102.917 201.370,102.843 201.855,102.846 202.930 M296.966 207.813 C 296.966 208.564,297.046 208.872,297.144 208.496 C 297.243 208.120,297.243 207.505,297.144 207.129 C 297.046 206.753,296.966 207.061,296.966 207.813 M172.656 237.232 C 172.656 237.299,173.228 237.870,173.926 238.501 L 175.195 239.648 174.048 238.379 C 172.979 237.196,172.656 236.930,172.656 237.232 M166.797 239.575 C 166.797 239.643,167.368 240.214,168.066 240.845 L 169.336 241.992 168.189 240.723 C 167.119 239.539,166.797 239.274,166.797 239.575 M291.497 242.969 C 291.497 243.721,291.577 244.028,291.676 243.652 C 291.774 243.276,291.774 242.661,291.676 242.285 C 291.577 241.909,291.497 242.217,291.497 242.969 M89.648 307.031 C 91.573 308.965,93.236 310.547,93.343 310.547 C 93.451 310.547,91.964 308.965,90.039 307.031 C 88.114 305.098,86.452 303.516,86.344 303.516 C 86.237 303.516,87.724 305.098,89.648 307.031 " stroke="none" fill="rgb(78,201,176)" fill-rule="evenodd"></path></g></svg>